<?xml version="1.0" encoding="utf-8"?>
<!-- Generator: Adobe Illustrator 19.0.0, SVG Export Plug-In . SVG Version: 6.00 Build 0)  -->
<svg version="1.1" id="Layer_1" xmlns="http://www.w3.org/2000/svg" xmlns:xlink="http://www.w3.org/1999/xlink" x="0px" y="0px"
	 viewBox="0 0 176.1 200" style="enable-background:new 0 0 176.1 200;" xml:space="preserve">
<style type="text/css">
	.st0{fill:#393E45;}
</style>
<g id="XMLID_99_">
	<g id="XMLID_101_">
		<path id="XMLID_102_" class="st0" d="M45.2,154.8V0h59.3c10.4,0,20.1,1.8,28.9,5.2c8.8,3.5,16.4,8.5,22.6,14.9
			c6.2,6.5,11.2,14.4,14.7,23.7c3.6,9.3,5.4,20,5.4,31.9c0,11.9-1.6,22.8-4.8,32.6c-3.2,9.7-7.8,18.1-13.6,24.9
			c-5.8,6.8-12.9,12.2-21,15.9c-8.1,3.8-17.2,5.7-27.1,5.7H45.2z M72.2,133.2h30.6c15.5,0,27-5,34.2-14.8
			c6.9-9.6,10.4-23.9,10.4-42.6c0-9.2-0.8-17.2-2.5-23.9c-1.7-6.9-4.6-12.6-8.5-17c-3.9-4.5-9-7.7-15.1-9.8
			c-5.9-1.9-13.1-2.9-21.4-2.9H72.2V133.2z"/>
	</g>
	<polygon id="XMLID_100_" class="st0" points="153.8,177.7 22.3,177.7 22.3,0 0,22.3 0,177.7 0,181.5 0,200 176.1,200 	"/>
</g>
</svg>
