<?xml version="1.0" encoding="UTF-8" standalone="no"?>
<!DOCTYPE svg PUBLIC "-//W3C//DTD SVG 1.1//EN" "http://www.w3.org/Graphics/SVG/1.1/DTD/svg11.dtd">
<svg width="100%" height="100%" viewBox="0 0 2036 600" version="1.1" xmlns="http://www.w3.org/2000/svg" xmlns:xlink="http://www.w3.org/1999/xlink" xml:space="preserve" xmlns:serif="http://www.serif.com/" style="fill-rule:evenodd;clip-rule:evenodd;stroke-linejoin:round;stroke-miterlimit:2;">
    <g id="Layer-1" serif:id="Layer 1">
        <g transform="matrix(1,0,0,1,216.477,65.0191)">
            <path d="M0,334.45L91.828,334.45C138.459,334.45 172.959,319.495 194.368,290.002C215.163,261.347 225.705,218.334 225.705,162.152C225.705,134.562 223.18,110.457 218.205,90.506C213.051,69.922 204.497,52.754 192.777,39.473C180.952,26.072 165.682,16.226 147.393,10.21C129.671,4.396 108.05,1.45 83.128,1.45L0,1.45L0,334.45ZM-80.955,399.456L-80.955,-65.006L96.902,-65.006C128.065,-65.006 157.266,-59.716 183.694,-49.284C209.976,-38.91 232.753,-23.85 251.395,-4.521C270.073,14.851 284.951,38.775 295.62,66.584C306.314,94.482 311.735,126.637 311.735,162.152C311.735,197.8 306.875,230.695 297.294,259.923C287.773,288.942 274.043,314.082 256.489,334.637C238.998,355.116 217.77,371.211 193.399,382.477C169.028,393.743 141.686,399.456 112.127,399.456L-80.955,399.456Z" style="fill:rgb(57,62,69);fill-rule:nonzero;"/>
        </g>
        <g transform="matrix(1,0,0,1,461.376,66.8447)">
            <path d="M0,466.31L-394.53,466.31L-394.53,-66.845L-461.376,0L-461.376,533.155L66.845,533.155L0,466.31Z" style="fill:rgb(57,62,69);fill-rule:nonzero;"/>
        </g>
        <g transform="matrix(1,0,0,1,680.833,460.175)">
            <path d="M0,139.825L-94.678,139.825L-94.678,0L-67.03,0L-67.03,113.577L0,113.577L0,139.825Z" style="fill:rgb(57,62,69);fill-rule:nonzero;"/>
        </g>
        <g transform="matrix(1,0,0,1,803.331,527.376)">
            <path d="M0,0C0,-6.414 -1.229,-12.457 -3.679,-18.108C-6.138,-23.77 -9.502,-28.726 -13.762,-32.986C-18.032,-37.246 -23.026,-40.629 -28.754,-43.136C-34.482,-45.643 -40.563,-46.901 -46.986,-46.901C-53.534,-46.901 -59.672,-45.643 -65.4,-43.136C-71.128,-40.629 -76.122,-37.246 -80.392,-32.986C-84.652,-28.726 -88.016,-23.77 -90.475,-18.108C-92.925,-12.457 -94.154,-6.414 -94.154,0C-94.154,6.3 -92.925,12.314 -90.475,18.023C-88.016,23.741 -84.652,28.735 -80.392,32.986C-76.122,37.246 -71.128,40.63 -65.4,43.136C-59.672,45.652 -53.534,46.901 -46.986,46.901C-40.563,46.901 -34.482,45.652 -28.754,43.136C-23.026,40.63 -18.032,37.246 -13.762,32.986C-9.502,28.735 -6.138,23.741 -3.679,18.023C-1.229,12.314 0,6.3 0,0M27.124,0C27.124,10.036 25.171,19.49 21.273,28.354C17.365,37.217 12.037,44.918 5.28,51.456C-1.487,57.985 -9.35,63.151 -18.318,66.944C-27.296,70.728 -36.855,72.624 -46.986,72.624C-57.127,72.624 -66.715,70.728 -75.741,66.944C-84.776,63.151 -92.667,57.985 -99.424,51.456C-106.191,44.918 -111.519,37.246 -115.427,28.44C-119.325,19.633 -121.279,10.15 -121.279,0C-121.279,-10.15 -119.325,-19.662 -115.427,-28.525C-111.519,-37.389 -106.191,-45.09 -99.424,-51.628C-92.667,-58.156 -84.776,-63.294 -75.741,-67.03C-66.715,-70.756 -57.127,-72.624 -46.986,-72.624C-36.855,-72.624 -27.296,-70.756 -18.318,-67.03C-9.35,-63.294 -1.487,-58.128 5.28,-51.542C12.037,-44.947 17.365,-37.246 21.273,-28.44C25.171,-19.624 27.124,-10.15 27.124,0" style="fill:rgb(57,62,69);fill-rule:nonzero;"/>
        </g>
        <g transform="matrix(1,0,0,1,970.119,459.994)">
            <path d="M0,140.006L-35.349,140.006L-91.352,78.056L-91.352,140.006L-118.476,140.006L-118.476,0L-91.352,0L-91.352,62.483L-34.12,0L-1.925,0L-65.104,68.783L0,140.006Z" style="fill:rgb(57,62,69);fill-rule:nonzero;"/>
        </g>
        <g transform="matrix(1,0,0,1,1098.39,525.975)">
            <path d="M0,0C0,-6.185 -1.106,-11.99 -3.326,-17.413C-5.537,-22.836 -8.635,-27.649 -12.6,-31.852L-67.373,42.355C-60.959,45.385 -54.135,46.901 -46.901,46.901C-40.487,46.901 -34.416,45.652 -28.697,43.136C-22.988,40.629 -17.994,37.246 -13.734,32.986C-9.483,28.735 -6.119,23.741 -3.669,18.023C-1.22,12.314 0,6.3 0,0M-26.772,-42.355C-33.072,-45.385 -39.839,-46.901 -47.072,-46.901C-53.61,-46.901 -59.739,-45.643 -65.448,-43.136C-71.166,-40.629 -76.16,-37.246 -80.411,-32.986C-84.671,-28.726 -88.026,-23.77 -90.475,-18.108C-92.925,-12.457 -94.154,-6.414 -94.154,0C-94.154,6.071 -93.049,11.818 -90.828,17.241C-88.607,22.664 -85.519,27.534 -81.555,31.852L-26.772,-42.355ZM27.124,0C27.124,10.036 25.171,19.49 21.273,28.354C17.365,37.217 12.028,44.918 5.27,51.456C-1.487,57.985 -9.359,63.151 -18.337,66.944C-27.315,70.728 -36.874,72.624 -47.015,72.624C-53.658,72.624 -59.977,71.843 -65.991,70.27C-71.995,68.688 -77.675,66.448 -83.032,63.532L-90.904,74.025L-112.587,74.025L-97.356,53.382C-104.705,46.729 -110.537,38.828 -114.836,29.66C-119.134,20.51 -121.279,10.617 -121.279,0C-121.279,-10.15 -119.325,-19.662 -115.417,-28.525C-111.519,-37.389 -106.182,-45.09 -99.425,-51.628C-92.658,-58.156 -84.757,-63.294 -75.731,-67.03C-66.696,-70.756 -57.108,-72.624 -46.968,-72.624C-40.439,-72.624 -34.168,-71.843 -28.163,-70.261C-22.159,-68.688 -16.422,-66.439 -10.941,-63.522L-3.25,-74.025L18.432,-74.025L3.383,-53.372C10.732,-46.729 16.526,-38.847 20.767,-29.755C25.009,-20.653 27.124,-10.732 27.124,0" style="fill:rgb(57,62,69);fill-rule:nonzero;"/>
        </g>
        <g transform="matrix(1,0,0,1,1273.92,600)">
            <path d="M0,-139.997L-57.051,-57.394L-57.051,0L-84.528,0L-84.528,-57.747L-138.605,-139.997L-107.097,-139.997L-70.699,-81.202L-32.719,-139.997L0,-139.997Z" style="fill:rgb(57,62,69);fill-rule:nonzero;"/>
        </g>
        <g transform="matrix(1,0,0,1,1440.88,530.693)">
            <path d="M0,-1.392C0.114,-7.93 -0.877,-14.116 -2.974,-19.948C-5.08,-25.781 -8.111,-30.88 -12.075,-35.255C-16.05,-39.639 -20.92,-43.07 -26.696,-45.586C-32.471,-48.093 -38.971,-49.351 -46.205,-49.351L-69.832,-49.351L-69.832,46.204L-46.205,46.204C-39.085,46.204 -32.7,45.013 -27.039,42.621C-21.387,40.229 -16.574,36.902 -12.6,32.642C-8.635,28.382 -5.575,23.369 -3.412,17.593C-1.258,11.818 -0.124,5.489 0,-1.392M27.477,-0.696C27.477,8.987 25.838,18.06 22.569,26.514C19.309,34.977 14.754,42.383 8.921,48.74C3.088,55.106 -3.879,60.119 -11.99,63.798C-20.1,67.467 -28.935,69.307 -38.504,69.307L-96.956,69.307L-96.956,-70.699L-38.504,-70.699C-28.935,-70.699 -20.1,-68.831 -11.99,-65.095C-3.879,-61.359 3.088,-56.346 8.921,-50.046C14.754,-43.747 19.309,-36.341 22.569,-27.821C25.838,-19.3 27.477,-10.265 27.477,-0.696" style="fill:rgb(57,62,69);fill-rule:nonzero;"/>
        </g>
        <g transform="matrix(1,0,0,1,1581.75,460.175)">
            <path d="M0,139.825L-92.4,139.825L-92.4,0L0,0L0,22.397L-65.8,22.397L-65.8,55.821L-0.877,55.821L-0.877,77.694L-65.8,77.694L-65.8,116.198L0,116.198L0,139.825Z" style="fill:rgb(57,62,69);fill-rule:nonzero;"/>
        </g>
        <g transform="matrix(1,0,0,1,1696.21,493.942)">
            <path d="M0,66.687C0,71.938 -1.134,76.923 -3.412,81.65C-5.68,86.377 -8.864,90.552 -12.943,94.164C-17.031,97.776 -21.873,100.664 -27.468,102.828C-33.072,104.981 -39.257,106.058 -46.024,106.058C-52.085,106.058 -57.547,105.715 -62.388,105.01C-67.23,104.314 -71.776,103.209 -76.036,101.684C-80.296,100.168 -84.376,98.215 -88.283,95.822C-92.2,93.43 -96.251,90.552 -100.454,87.159L-81.202,67.735C-75.598,72.405 -70.118,75.703 -64.752,77.628C-59.386,79.553 -53.544,80.516 -47.244,80.516C-44.68,80.516 -42.259,80.135 -39.981,79.372C-37.713,78.619 -35.731,77.6 -34.034,76.313C-32.347,75.026 -31.004,73.511 -30.012,71.757C-29.021,70.013 -28.526,68.088 -28.526,65.982C-28.526,63.771 -28.935,61.788 -29.745,60.035C-30.565,58.29 -32.023,56.594 -34.12,54.964C-36.226,53.325 -39.143,51.667 -42.869,49.97C-46.605,48.283 -51.39,46.387 -57.223,44.29C-62.36,42.422 -67.287,40.287 -72.014,37.895C-76.732,35.512 -80.878,32.624 -84.433,29.231C-87.997,25.848 -90.856,21.883 -93.01,17.337C-95.174,12.781 -96.251,7.415 -96.251,1.23C-96.251,-4.717 -95.05,-10.197 -92.658,-15.22C-90.275,-20.233 -87.006,-24.522 -82.86,-28.077C-78.724,-31.642 -73.882,-34.405 -68.335,-36.388C-62.798,-38.37 -56.813,-39.371 -50.399,-39.371C-39.667,-39.371 -30.622,-37.97 -23.274,-35.168C-15.926,-32.366 -9.388,-28.287 -3.669,-22.921L-22.569,-3.84C-26.076,-7.224 -29.984,-9.816 -34.301,-11.627C-38.619,-13.438 -43.689,-14.343 -49.522,-14.343C-52.209,-14.343 -54.687,-13.933 -56.956,-13.114C-59.234,-12.304 -61.187,-11.217 -62.827,-9.883C-64.456,-8.539 -65.772,-6.957 -66.763,-5.156C-67.754,-3.345 -68.25,-1.448 -68.25,0.534C-68.25,2.755 -67.783,4.766 -66.849,6.567C-65.915,8.378 -64.342,10.132 -62.121,11.819C-59.91,13.515 -56.956,15.212 -53.286,16.898C-49.607,18.585 -45.033,20.425 -39.543,22.407C-32.547,24.857 -26.543,27.544 -21.52,30.461C-16.507,33.377 -12.419,36.589 -9.273,40.087C-6.119,43.585 -3.784,47.521 -2.268,51.895C-0.753,56.27 0,61.207 0,66.687" style="fill:rgb(57,62,69);fill-rule:nonzero;"/>
        </g>
        <g transform="matrix(-1,0,0,1,3458.05,460.175)">
            <rect x="1715.46" y="0" width="27.124" height="139.825" style="fill:rgb(57,62,69);"/>
        </g>
        <g transform="matrix(1,0,0,1,1897.64,483.096)">
            <path d="M0,88.56C-3.974,93.459 -8.292,97.69 -12.952,101.245C-17.622,104.81 -22.493,107.755 -27.563,110.08C-32.643,112.415 -37.837,114.14 -43.146,115.246C-48.454,116.352 -53.734,116.904 -58.976,116.904C-69.365,116.904 -79.105,115.036 -88.207,111.31C-97.309,107.574 -105.238,102.446 -112.005,95.908C-118.772,89.38 -124.147,81.679 -128.112,72.806C-132.077,63.942 -134.059,54.373 -134.059,44.109C-134.059,34.073 -132.105,24.656 -128.198,15.841C-124.29,7.034 -118.924,-0.638 -112.091,-7.167C-105.267,-13.705 -97.309,-18.87 -88.207,-22.654C-79.105,-26.447 -69.365,-28.344 -58.976,-28.344C-46.967,-28.344 -36.026,-25.894 -26.171,-20.996C-16.307,-16.097 -7.939,-9.559 -1.058,-1.391L-19.395,17.327C-24.637,10.217 -30.527,5.109 -37.046,2.021C-43.565,-1.076 -50.846,-2.62 -58.881,-2.62C-65.524,-2.62 -71.757,-1.391 -77.58,1.058C-83.403,3.508 -88.502,6.863 -92.867,11.113C-97.242,15.374 -100.673,20.339 -103.18,25.991C-105.686,31.652 -106.935,37.695 -106.935,44.109C-106.935,50.637 -105.686,56.737 -103.18,62.398C-100.673,68.05 -97.242,73.044 -92.877,77.361C-88.512,81.679 -83.413,85.053 -77.59,87.512C-71.776,89.961 -65.543,91.181 -58.909,91.181C-52.619,91.181 -46.691,90.018 -41.097,87.683C-35.511,85.348 -30.508,82.26 -26.076,78.41L-26.076,64.933L-54.783,64.933L-54.783,41.831L0,41.831L0,88.56Z" style="fill:rgb(57,62,69);fill-rule:nonzero;"/>
        </g>
        <g transform="matrix(1,0,0,1,2035.02,459.994)">
            <path d="M0,140.006L-26.6,140.006L-89.779,41.83L-89.779,140.006L-116.38,140.006L-116.38,0L-85.929,0L-26.6,91.352L-26.6,0L0,0L0,140.006Z" style="fill:rgb(57,62,69);fill-rule:nonzero;"/>
        </g>
    </g>
</svg>
